<svg xmlns="http://www.w3.org/2000/svg" viewBox="0 0 512 512"><path d="M437.02 74.98C388.668 26.629 324.38 0 256 0S123.332 26.629 74.98 74.98C26.628 123.331 0 187.62 0 256s26.629 132.668 74.98 181.02C123.331 485.372 187.62 512 256 512s132.668-26.629 181.02-74.98C485.372 388.669 512 324.38 512 256s-26.629-132.668-74.98-181.02zM256 497C123.112 497 15 388.888 15 256S123.112 15 256 15s241 108.112 241 241-108.112 241-241 241z"/><path d="M271 90h-15a7.499 7.499 0 00-7.5 7.5v30c0 4.143 3.357 7.5 7.5 7.5h15c33.636 0 61 27.364 61 61s-27.364 61-61 61h-23.5c-4.143 0-7.5 3.357-7.5 7.5s3.357 7.5 7.5 7.5H271c41.906 0 76-34.094 76-76s-34.094-76-76-76h-7.5v-15h7.5c74.99 0 136 61.01 136 136s-61.01 136-136 136h-83.5a7.499 7.499 0 00-7.5 7.5v11.894L108.106 324.5 180 252.606V264.5c0 4.143 3.357 7.5 7.5 7.5h30c4.143 0 7.5-3.357 7.5-7.5s-3.357-7.5-7.5-7.5H195v-22.5a7.499 7.499 0 00-12.804-5.304l-90 90a7.5 7.5 0 000 10.607l90 90A7.501 7.501 0 00195 414.499V392h76c83.262 0 151-67.738 151-151S354.262 90 271 90z"/></svg>