<svg xmlns="http://www.w3.org/2000/svg" width="612" height="612"><path d="M431.001 289.189l-108.19-108.19c-7.478-7.478-19.583-7.478-27.042 0-7.478 7.478-7.478 19.584 0 27.043l78.814 78.833H172.125C161.568 286.875 153 295.443 153 306s8.568 19.125 19.125 19.125h202.457l-78.814 78.814c-7.478 7.478-7.478 19.584 0 27.042 7.478 7.479 19.584 7.479 27.042 0L431 322.792c4.59-4.59 6.005-10.863 4.973-16.811 1.033-5.91-.401-12.202-4.972-16.792zM306 0C136.992 0 0 136.992 0 306s136.992 306 306 306 306-137.012 306-306S475.008 0 306 0zm0 573.75C158.125 573.75 38.25 453.875 38.25 306S158.125 38.25 306 38.25 573.75 158.125 573.75 306 453.875 573.75 306 573.75z"/></svg>